<?xml version="1.0" standalone="no"?><!DOCTYPE svg PUBLIC "-//W3C//DTD SVG 1.1//EN" "http://www.w3.org/Graphics/SVG/1.1/DTD/svg11.dtd"><svg t="1495439261138" class="icon" style="" viewBox="0 0 1024 1024" version="1.1" xmlns="http://www.w3.org/2000/svg" p-id="6301" xmlns:xlink="http://www.w3.org/1999/xlink" width="200" height="200"><defs><style type="text/css"></style></defs><path d="M228.891612 62.633113h563.623274c91.552754 0 165.77113 74.219399 165.77113 165.77113v563.623274c0 91.552754-74.219399 165.77113-165.77113 165.77113H228.891612c-91.552754 0-165.77113-74.219399-165.771129-165.77113V228.404243c0-91.55173 74.219399-165.77113 165.771129-165.77113z" fill="#EE9D49" p-id="6302"></path><path d="M262.211912 543.370822h513.89214c18.311165 0 33.154431 14.843266 33.154431 33.154431v182.348857c0 18.311165-14.843266 33.154431-33.154431 33.154431H262.211912c-18.311165 0-33.154431-14.843266-33.15443-33.154431V576.525253c0-18.311165 14.843266-33.154431 33.15443-33.154431z" fill="#F5DE57" p-id="6303"></path><path d="M262.211912 543.370822h513.89214c18.311165 0 33.154431 14.843266 33.154431 33.154431s-14.843266 33.154431-33.154431 33.154431H262.211912c-18.311165 0-33.154431-14.843266-33.15443-33.154431s14.843266-33.154431 33.15443-33.154431z" fill="#E9C549" p-id="6304"></path><path d="M345.097477 211.827539h348.119987c27.466748 0 49.731134 22.264386 49.731134 49.731134v348.119987H295.366343V261.558673c0-27.466748 22.264386-49.731134 49.731134-49.731134z" fill="#FFFFFF" p-id="6305"></path><path d="M304.507591 675.987521h429.299759a9.141248 9.141248 0 0 1 9.141248 9.141249v28.238757a9.141248 9.141248 0 0 1-9.141248 9.141248H304.507591a9.141248 9.141248 0 0 1-9.141248-9.141248v-28.238757a9.141248 9.141248 0 0 1 9.141248-9.141249z" fill="#FDFBDE" p-id="6306"></path><path d="M303.654695 675.987521h431.005551a8.289376 8.289376 0 0 1 0 16.576704H303.654695a8.289376 8.289376 0 0 1 0-16.576704z" fill="#E9C549" p-id="6307"></path><path d="M411.406338 294.713104h215.503288c9.155583 0 16.576703 7.421121 16.576704 16.576704s-7.421121 16.576703-16.576704 16.576703H411.406338c-9.155583 0-16.576703-7.421121-16.576703-16.576703 0-9.154559 7.421121-16.576703 16.576703-16.576704z" fill="#C4CDCF" p-id="6308"></path><path d="M345.097477 493.638664h348.119987c9.155583 0 16.576703 7.421121 16.576703 16.576704s-7.421121 16.576703-16.576703 16.576703H345.097477c-9.155583 0-16.576703-7.421121-16.576703-16.576703 0-9.154559 7.421121-16.576703 16.576703-16.576704zM345.097477 394.176396h348.119987c9.155583 0 16.576703 7.421121 16.576703 16.576704s-7.421121 16.576703-16.576703 16.576703H345.097477c-9.155583 0-16.576703-7.421121-16.576703-16.576703s7.421121-16.576703 16.576703-16.576704z" fill="#D1DCDE" p-id="6309"></path></svg>